<svg width="100" height="55" viewBox="0 0 100 55" fill="none" xmlns="http://www.w3.org/2000/svg">
<g clip-path="url(#clip0_3_136)">
<path d="M98.8144 12.0727C98.8144 13.0028 98.6367 13.7941 98.2812 14.4466C97.9285 15.099 97.4471 15.5974 96.8369 15.9417C96.2296 16.2832 95.5466 16.454 94.7881 16.454C94.0239 16.454 93.3382 16.2818 92.7308 15.9375C92.1234 15.5932 91.6434 15.0949 91.2907 14.4424C90.9381 13.7899 90.7617 13 90.7617 12.0727C90.7617 11.1426 90.9381 10.3513 91.2907 9.69881C91.6434 9.04634 92.1234 8.54935 92.7308 8.20784C93.3382 7.86356 94.0239 7.69142 94.7881 7.69142C95.5466 7.69142 96.2296 7.86356 96.8369 8.20784C97.4471 8.54935 97.9285 9.04634 98.2812 9.69881C98.6367 10.3513 98.8144 11.1426 98.8144 12.0727ZM96.9713 12.0727C96.9713 11.4702 96.8803 10.9621 96.6984 10.5484C96.5193 10.1347 96.2659 9.82097 95.9385 9.60718C95.611 9.3934 95.2275 9.2865 94.7881 9.2865C94.3486 9.2865 93.9652 9.3934 93.6377 9.60718C93.3102 9.82097 93.0555 10.1347 92.8736 10.5484C92.6944 10.9621 92.6049 11.4702 92.6049 12.0727C92.6049 12.6752 92.6944 13.1833 92.8736 13.597C93.0555 14.0107 93.3102 14.3244 93.6377 14.5382C93.9652 14.752 94.3486 14.8589 94.7881 14.8589C95.2275 14.8589 95.611 14.752 95.9385 14.5382C96.2659 14.3244 96.5193 14.0107 96.6984 13.597C96.8803 13.1833 96.9713 12.6752 96.9713 12.0727Z" fill="#F3EDE8"/>
<path d="M83.2581 16.3373V7.80803H86.6504C87.3026 7.80803 87.8582 7.93158 88.3172 8.17869C88.7763 8.42302 89.1262 8.76313 89.3669 9.19904C89.6104 9.63217 89.7321 10.1319 89.7321 10.6983C89.7321 11.2647 89.609 11.7645 89.3627 12.1976C89.1164 12.6308 88.7595 12.9681 88.2921 13.2096C87.8274 13.4512 87.2648 13.572 86.6043 13.572H84.442V12.1268H86.3104C86.6602 12.1268 86.9485 12.0671 87.1753 11.9477C87.4048 11.8256 87.5755 11.6576 87.6875 11.4438C87.8022 11.2272 87.8596 10.9788 87.8596 10.6983C87.8596 10.4151 87.8022 10.168 87.6875 9.95701C87.5755 9.74323 87.4048 9.57803 87.1753 9.46142C86.9457 9.34203 86.6546 9.28233 86.302 9.28233H85.076V16.3373H83.2581Z" fill="#F3EDE8"/>
<path d="M79.9444 7.80803H81.7623V13.3471C81.7623 13.969 81.6126 14.5132 81.3131 14.9796C81.0164 15.4461 80.6008 15.8098 80.0662 16.0708C79.5315 16.329 78.9088 16.4581 78.1978 16.4581C77.4841 16.4581 76.8599 16.329 76.3253 16.0708C75.7907 15.8098 75.375 15.4461 75.0783 14.9796C74.7816 14.5132 74.6333 13.969 74.6333 13.3471V7.80803H76.4512V13.193C76.4512 13.5178 76.5226 13.8066 76.6654 14.0592C76.8109 14.3119 77.0152 14.5104 77.2784 14.6548C77.5415 14.7992 77.8479 14.8714 78.1978 14.8714C78.5505 14.8714 78.857 14.7992 79.1173 14.6548C79.3804 14.5104 79.5833 14.3119 79.7261 14.0592C79.8716 13.8066 79.9444 13.5178 79.9444 13.193V7.80803Z" fill="#F3EDE8"/>
<path d="M66.8743 16.3373V7.80803H70.2667C70.916 7.80803 71.4702 7.92325 71.9293 8.1537C72.3911 8.38137 72.7424 8.70483 72.9831 9.12408C73.2266 9.54054 73.3483 10.0306 73.3483 10.5942C73.3483 11.1606 73.2252 11.6479 72.9789 12.056C72.7326 12.4614 72.3757 12.7724 71.9083 12.9889C71.4436 13.2055 70.881 13.3138 70.2205 13.3138H67.9491V11.8644H69.9266C70.2736 11.8644 70.5619 11.8172 70.7915 11.7228C71.021 11.6284 71.1917 11.4868 71.3037 11.298C71.4184 11.1092 71.4758 10.8746 71.4758 10.5942C71.4758 10.311 71.4184 10.0722 71.3037 9.87789C71.1917 9.68353 71.0196 9.53638 70.7873 9.43643C70.5577 9.3337 70.2681 9.28233 69.9182 9.28233H68.6922V16.3373H66.8743ZM71.5178 12.4558L73.6548 16.3373H71.648L69.5571 12.4558H71.5178Z" fill="#F3EDE8"/>
<path d="M63.5817 10.5651C63.5229 10.3624 63.4404 10.1833 63.334 10.0278C63.2276 9.86956 63.0975 9.73629 62.9435 9.62801C62.7924 9.51695 62.6189 9.43227 62.4229 9.37396C62.2298 9.31566 62.0157 9.2865 61.7806 9.2865C61.3411 9.2865 60.9548 9.39478 60.6218 9.61135C60.2915 9.82791 60.034 10.143 59.8492 10.5567C59.6645 10.9677 59.5721 11.4702 59.5721 12.0644C59.5721 12.6585 59.6631 13.1638 59.845 13.5803C60.027 13.9968 60.2845 14.3147 60.6176 14.534C60.9506 14.7506 61.3439 14.8589 61.7973 14.8589C62.2088 14.8589 62.5601 14.7867 62.8512 14.6423C63.1451 14.4952 63.369 14.2883 63.5229 14.0218C63.6797 13.7552 63.758 13.4401 63.758 13.0764L64.1275 13.1305H61.9107V11.7728H65.5088V12.8473C65.5088 13.597 65.3493 14.2411 65.0302 14.7797C64.7111 15.3156 64.2717 15.7293 63.7119 16.0208C63.1521 16.3096 62.5111 16.454 61.7889 16.454C60.9828 16.454 60.2747 16.2776 59.6645 15.925C59.0543 15.5696 58.5785 15.0657 58.237 14.4132C57.8983 13.758 57.729 12.9806 57.729 12.081C57.729 11.3897 57.8298 10.7733 58.0313 10.2319C58.2356 9.6877 58.5211 9.22681 58.8878 8.84921C59.2545 8.47161 59.6813 8.18424 60.1683 7.98712C60.6554 7.78999 61.183 7.69142 61.7512 7.69142C62.2382 7.69142 62.6916 7.76222 63.1115 7.90382C63.5313 8.04264 63.9036 8.23977 64.2283 8.49521C64.5558 8.75064 64.8231 9.05467 65.0302 9.40728C65.2373 9.75711 65.3703 10.143 65.429 10.5651H63.5817Z" fill="#D3B879"/>
<path d="M93.6534 30.4107H91.7053L94.6737 21.8814H97.0164L99.9806 30.4107H98.0325L95.8786 23.8305H95.8114L93.6534 30.4107ZM93.5317 27.0581H98.1332V28.4658H93.5317V27.0581Z" fill="#F3EDE8"/>
<path d="M89.1442 24.6384C89.0854 24.4357 89.0029 24.2567 88.8965 24.1012C88.7901 23.9429 88.66 23.8097 88.506 23.7014C88.3549 23.5903 88.1814 23.5056 87.9854 23.4473C87.7923 23.389 87.5782 23.3599 87.3431 23.3599C86.9036 23.3599 86.5173 23.4681 86.1843 23.6847C85.854 23.9013 85.5965 24.2164 85.4117 24.6301C85.227 25.041 85.1346 25.5436 85.1346 26.1377C85.1346 26.7319 85.2256 27.2372 85.4075 27.6537C85.5895 28.0701 85.847 28.388 86.1801 28.6074C86.5131 28.824 86.9064 28.9322 87.3598 28.9322C87.7713 28.9322 88.1226 28.86 88.4137 28.7157C88.7076 28.5685 88.9315 28.3617 89.0854 28.0951C89.2422 27.8286 89.3205 27.5135 89.3205 27.1497L89.69 27.2039H87.4732V25.8462H91.0713V26.9207C91.0713 27.6703 90.9118 28.3145 90.5927 28.8531C90.2736 29.389 89.8342 29.8027 89.2744 30.0942C88.7146 30.3829 88.0736 30.5273 87.3514 30.5273C86.5453 30.5273 85.8372 30.351 85.227 29.9984C84.6168 29.643 84.141 29.1391 83.7995 28.4866C83.4608 27.8314 83.2915 27.054 83.2915 26.1544C83.2915 25.463 83.3923 24.8467 83.5938 24.3053C83.7981 23.7611 84.0836 23.3002 84.4503 22.9226C84.817 22.545 85.2438 22.2576 85.7308 22.0605C86.2179 21.8634 86.7455 21.7648 87.3137 21.7648C87.8007 21.7648 88.2541 21.8356 88.674 21.9772C89.0938 22.116 89.4661 22.3131 89.7908 22.5686C90.1183 22.824 90.3856 23.128 90.5927 23.4806C90.7998 23.8305 90.9328 24.2164 90.9915 24.6384H89.1442Z" fill="#F3EDE8"/>
<path d="M77.8892 30.4107H74.8411V21.8814H77.9144C78.7793 21.8814 79.5238 22.0521 80.148 22.3936C80.7721 22.7324 81.2522 23.2196 81.588 23.8554C81.9267 24.4913 82.0961 25.252 82.0961 26.1377C82.0961 27.0262 81.9267 27.7897 81.588 28.4283C81.2522 29.0669 80.7693 29.5569 80.1396 29.8984C79.5126 30.2399 78.7625 30.4107 77.8892 30.4107ZM76.659 28.8656H77.8136C78.351 28.8656 78.803 28.7712 79.1697 28.5824C79.5392 28.3908 79.8163 28.0951 80.001 27.6953C80.1885 27.2927 80.2823 26.7735 80.2823 26.1377C80.2823 25.5074 80.1885 24.9924 80.001 24.5926C79.8163 24.1928 79.5406 23.8985 79.1739 23.7097C78.8072 23.5209 78.3552 23.4265 77.8178 23.4265H76.659V28.8656Z" fill="#F3EDE8"/>
<path d="M67.4789 30.4107H65.5308L68.4991 21.8814H70.8419L73.806 30.4107H71.8579L69.7041 23.8305H69.6369L67.4789 30.4107ZM67.3571 27.0581H71.9587V28.4658H67.3571V27.0581Z" fill="#F3EDE8"/>
<path d="M60.9282 30.4107H57.8801V21.8814H60.9534C61.8183 21.8814 62.5628 22.0521 63.187 22.3936C63.8112 22.7324 64.2912 23.2196 64.6271 23.8554C64.9658 24.4913 65.1351 25.252 65.1351 26.1377C65.1351 27.0262 64.9658 27.7897 64.6271 28.4283C64.2912 29.0669 63.8084 29.5569 63.1786 29.8984C62.5517 30.2399 61.8015 30.4107 60.9282 30.4107ZM59.6981 28.8656H60.8527C61.3901 28.8656 61.8421 28.7712 62.2088 28.5824C62.5782 28.3908 62.8553 28.0951 63.0401 27.6953C63.2276 27.2927 63.3214 26.7735 63.3214 26.1377C63.3214 25.5074 63.2276 24.9924 63.0401 24.5926C62.8553 24.1928 62.5796 23.8985 62.213 23.7097C61.8463 23.5209 61.3943 23.4265 60.8569 23.4265H59.6981V28.8656Z" fill="#D3B879"/>
<path d="M88.292 35.9548H90.534L92.9019 41.6854H93.0027L95.3707 35.9548H97.6126V44.4841H95.8493V38.9325H95.7779L93.5527 44.4424H92.3519L90.1267 38.9117H90.0554V44.4841H88.292V35.9548Z" fill="#F3EDE8"/>
<path d="M80.9298 44.4841H78.9817L81.95 35.9548H84.2928L87.2569 44.4841H85.3088L83.155 37.9038H83.0878L80.9298 44.4841ZM80.808 41.1315H85.4096V42.5391H80.808V41.1315Z" fill="#F3EDE8"/>
<path d="M72.2737 37.4416V35.9548H79.3355V37.4416H76.7031V44.4841H74.9061V37.4416H72.2737Z" fill="#F3EDE8"/>
<path d="M66.2897 44.4841H64.3416L67.3099 35.9548H69.6526L72.6168 44.4841H70.6687L68.5149 37.9038H68.4477L66.2897 44.4841ZM66.1679 41.1315H70.7694V42.5391H66.1679V41.1315Z" fill="#F3EDE8"/>
<path d="M57.8801 44.4841V35.9548H59.6981V42.9973H63.3844V44.4841H57.8801Z" fill="#D3B879"/>
<path d="M41.5682 40.8296C41.3642 40.8298 41.1813 40.8201 41.0259 40.8119C40.9392 40.8074 40.853 40.8017 40.7678 40.8017H35.941V35.5433H38.3858C39.1297 35.5433 39.8737 35.5433 40.6176 35.5433C40.7465 35.5433 40.901 35.5772 41.0165 35.5019C41.1075 35.4425 41.1623 35.3231 41.2242 35.2346C41.7774 34.443 42.3476 33.6271 42.8938 32.8188V23.377C42.8938 23.2601 42.8946 23.1432 42.8955 23.0261C42.9018 22.9671 42.9038 22.9078 42.9014 22.8485C42.8612 22.5877 42.6288 22.3699 42.4866 22.1545L40.0347 18.4414C39.2091 18.4434 38.3838 18.4431 37.5587 18.4404C37.0231 18.4394 36.4874 18.4387 35.9518 18.4383H19.7473V13.1799H35.9518C36.4908 13.1799 37.0299 13.1806 37.569 13.182C38.637 13.184 39.7051 13.1861 40.7728 13.1799C40.8021 13.1799 40.8292 13.1784 40.8549 13.1775C41.3065 13.1615 42.6807 13.1107 43.7239 14.4465C43.8486 14.6089 43.9643 14.7779 44.0705 14.9527C44.0881 14.9809 44.1054 15.0092 44.1235 15.0365L46.9209 19.2732C46.9663 19.3418 47.0291 19.426 47.1018 19.5236C47.4989 20.056 48.1636 20.9472 48.1942 22.324C48.1997 22.5705 48.1982 22.8177 48.1964 23.0648C48.1956 23.1689 48.1948 23.273 48.1948 23.377V32.8821C48.1948 32.9259 48.1961 32.9668 48.197 33.0056C48.208 33.4424 48.2307 34.3515 47.5662 35.346L47.4807 35.4739C46.8556 36.4064 46.2074 37.3337 45.5806 38.2305L45.3717 38.5295C45.337 38.5791 45.3043 38.6333 45.2704 38.6875C44.9521 39.1955 44.2899 40.2522 42.9134 40.6512C42.476 40.7743 42.0229 40.8344 41.5682 40.8296Z" fill="#F3EDE8"/>
<path d="M37.6085 42.6251H37.6082V35.4337H37.6063V24.9529H21.5619V30.1708H32.0741C32.1345 30.3971 32.1968 30.5222 32.1971 30.6473C32.2051 35.0603 32.22 39.4733 32.1821 43.8859C32.1795 44.1871 31.8397 44.5933 31.5462 44.767C29.3024 46.0947 27.0419 47.396 24.7555 48.6498C24.4524 48.816 23.8945 48.8104 23.5898 48.6427C21.2755 47.3693 18.989 46.0455 16.7123 44.7064C16.4656 44.5613 16.1947 44.2278 16.1784 43.9667C16.1161 42.968 16.1532 41.9631 16.1532 40.8422H29.6908V35.4945H5.46979V19.6204H10.776V32.9971H16.1493C16.1493 32.4602 16.1493 32.0289 16.1493 31.5975C16.1488 24.9273 16.1572 18.2571 16.134 11.587C16.1316 10.9075 16.3044 10.4902 16.9363 10.1445C19.1348 8.94181 21.3108 7.69888 23.4641 6.41571C24.0108 6.09162 24.4046 6.1264 24.9324 6.43862C26.9138 7.61052 28.9203 8.74098 30.9275 9.86925C31.669 10.2861 32.4697 10.6295 32.2726 11.6942H37.6146C37.6146 10.5974 37.5841 9.55918 37.6254 8.52381C37.6523 7.8487 37.4523 7.42563 36.8206 7.06912C32.7795 4.78851 28.7713 2.45072 24.728 0.174066C24.4368 0.0101116 23.876 0.0466463 23.5711 0.218186C19.5862 2.46006 15.6335 4.75835 11.6491 7.00117C10.9693 7.38382 10.701 7.81729 10.7246 8.59544C10.7804 10.435 10.7425 12.2772 10.7425 14.2274H0.0744629V40.8736H10.743C10.743 42.8619 10.7622 44.7443 10.732 46.6258C10.7223 47.2328 10.9106 47.6086 11.4602 47.9198C15.5272 50.2227 19.5719 52.5645 23.6436 54.8592C23.9194 55.0146 24.4359 55.0237 24.7082 54.8702C28.7212 52.6083 32.7026 50.2912 36.7164 48.0308C37.4013 47.6451 37.6544 47.2038 37.6321 46.432C37.5957 45.1716 37.6015 43.9084 37.6085 42.6251Z" fill="#F3EDE8"/>
</g>
<defs>
<clipPath id="clip0_3_136">
<rect width="100" height="55" fill="white"/>
</clipPath>
</defs>
</svg>
