<svg width="55" height="55" viewBox="0 0 55 55" fill="none" xmlns="http://www.w3.org/2000/svg">
<path d="M32.5562 33.5313C32.5562 32.7259 32.5494 32.0031 32.567 31.2816C32.5683 31.218 32.7199 31.1097 32.8079 31.1029C34.6502 30.9554 35.5788 29.6343 35.9037 27.9598C36.2339 26.2597 35.9294 24.7247 34.7612 23.4211C34.0032 22.5751 33.0448 21.9755 31.9132 21.8767C30.3917 21.7454 28.8567 21.7535 27.3271 21.7237C26.9549 21.7169 26.676 22.0364 26.6584 22.452C26.6381 22.919 26.6381 23.3873 26.6584 23.8543C26.6787 24.3308 27.0578 24.6597 27.541 24.6556C28.5278 24.6462 29.5132 24.6353 30.5 24.6272C30.9508 24.6232 31.231 24.8614 31.2499 25.2905C31.2662 25.6533 31.2662 26.0174 31.2526 26.3802C31.2377 26.7632 30.99 27.0136 30.6083 27.015C28.7119 27.0218 26.8141 27.0191 24.9177 27.0177C24.5982 27.0177 24.4101 26.839 24.3289 26.5494C24.2869 26.4018 24.2707 26.2421 24.2707 26.0891C24.2679 24.1413 24.2706 22.1934 24.2734 20.2442C24.2734 19.4916 24.4385 19.317 25.1884 19.3224C27.254 19.3373 29.3224 19.3007 31.3826 19.4036C33.1558 19.4916 34.6935 20.2523 35.9619 21.4949C38.0397 23.5335 38.7652 26.016 38.1209 28.8343C37.6119 31.0583 36.3179 32.6664 34.0343 33.3066C33.5808 33.4339 33.0976 33.4542 32.5575 33.534L32.5562 33.5313Z" fill="#C09467"/>
<path d="M31.4426 31.9721C31.4426 32.9982 31.4439 34.0242 31.4426 35.0516C31.4426 35.5917 31.203 35.8313 30.6561 35.8326C28.8233 35.8354 26.9905 35.8584 25.1591 35.8286C22.4762 35.7853 20.2806 34.701 18.7565 32.4919C17.1687 30.1908 16.9169 27.6974 18.0228 25.0903C18.8905 23.0437 20.439 21.9432 22.6197 21.6765C23.1408 21.6129 23.1706 21.6427 23.1652 22.1706C23.1584 22.6768 23.1571 23.1844 23.1584 23.6907C23.1584 23.8707 23.1544 24.0264 22.9121 24.048C21.1063 24.2078 20.24 25.3705 19.8393 26.9867C19.505 28.3349 19.6363 29.6507 20.328 30.8716C21.1158 32.2618 22.3503 33.0767 23.9029 33.3054C24.9222 33.4557 25.9712 33.4056 27.0068 33.4354C27.4359 33.4476 27.865 33.4462 28.2927 33.43C28.7773 33.411 29.0494 33.1092 29.0521 32.6246C29.0548 32.2225 29.067 31.8192 29.0683 31.4171C29.071 30.8391 28.7759 30.5251 28.1898 30.5183C27.2288 30.5075 26.2663 30.5197 25.3053 30.521C24.5905 30.521 24.4714 30.4006 24.4728 29.6818C24.4728 29.4219 24.466 29.162 24.466 28.9021C24.466 28.3065 24.6379 28.1306 25.2308 28.1333C26.8552 28.1414 28.4795 28.1536 30.1025 28.163C30.2717 28.163 30.4409 28.1671 30.6087 28.1576C31.2233 28.1238 31.4439 28.3336 31.4412 28.9305C31.4358 29.9444 31.4399 30.9569 31.4412 31.9708L31.4426 31.9721Z" fill="#C09467"/>
<path d="M9.4705 9.47854C10.8918 9.47854 12.1466 9.49208 13.4001 9.47313C14.1946 9.46094 14.7049 9.09817 15.111 8.34827C18.1824 2.67796 24.4334 -0.0712413 30.721 1.38525C35.0349 2.38422 38.289 4.72599 40.3425 8.70021C40.5144 9.0332 41.0098 9.35942 41.3834 9.39732C42.5394 9.51103 43.7089 9.51103 44.873 9.5002C45.4362 9.49479 45.6189 9.67617 45.6026 10.2447C45.5715 11.4088 45.539 12.5837 45.6649 13.737C45.715 14.1932 46.0845 14.778 46.4798 15.0067C52.3572 18.4002 55.1551 24.6228 53.5552 31.2258C52.6076 35.1405 50.2537 38.1062 46.7437 40.0893C45.9993 40.5103 45.6541 41.0206 45.6446 41.826C45.6324 42.8074 45.5675 43.7928 45.6311 44.7701C45.6825 45.5701 45.4889 45.8652 44.6253 45.7921C43.6237 45.7082 42.6057 45.8124 41.5946 45.8232C40.8135 45.8313 40.3438 46.1833 39.9364 46.8845C37.129 51.706 32.9125 54.3131 27.3234 54.2387C21.9725 54.1669 17.9035 51.5991 15.1665 47.0171C14.6982 46.2347 14.2055 45.8219 13.3188 45.8192C12.3388 45.8164 11.3547 45.7258 10.3774 45.7799C9.67219 45.8192 9.38387 45.6892 9.42989 44.9C9.4908 43.8632 9.40146 42.8168 9.37574 41.7745C9.35679 40.9746 8.99808 40.4737 8.26578 40.0541C4.23064 37.7462 1.85233 34.2511 1.15251 29.661C0.280775 23.9514 3.21136 17.9942 8.27525 15.2179C9.13074 14.7482 9.47862 14.1675 9.47456 13.2619C9.46779 12.0423 9.4732 10.8213 9.4732 9.47989L9.4705 9.47854ZM27.5088 42.7708C35.1757 42.7925 42.6193 36.7025 42.6206 27.3558C42.6206 19.2111 35.8823 12.5634 27.8012 12.4308C19.5861 12.2954 12.5188 18.9837 12.4092 26.9714C12.2887 35.7699 18.8551 42.6409 27.5075 42.7708H27.5088ZM28.4171 11.1773C32.0922 11.4941 35.3855 12.7353 38.2024 15.1651C38.354 15.2964 38.6748 15.3844 38.844 15.314C39.8119 14.9147 40.467 13.5759 40.2477 12.5215C40.1543 12.0721 40.13 11.5685 39.8999 11.1976C39.6548 10.8037 39.2501 10.3476 38.8346 10.246C35.3571 9.39462 32.3345 7.7405 29.764 5.26473C28.9992 4.527 28.3075 3.71348 27.5278 2.87829C27.3599 3.0096 27.2449 3.0678 27.1731 3.15985C24.3143 6.82409 20.6175 9.17398 16.0978 10.2488C15.8731 10.3015 15.62 10.4288 15.4792 10.6007C14.5046 11.7892 14.6589 13.7817 15.7039 14.8998C16.2264 15.4588 16.5689 15.4263 17.1347 14.9512C19.3086 13.1211 21.7993 11.9313 24.6202 11.4724M11.1842 26.5707C11.4319 22.897 12.7855 19.6794 15.1354 16.8585C15.2613 16.7069 15.2911 16.3238 15.1882 16.1559C14.3895 14.8483 13.6478 14.5736 12.1859 14.9769C11.8312 15.0744 11.4156 15.0947 11.1409 15.3005C10.7605 15.5847 10.3043 15.9651 10.1987 16.3847C9.55307 18.9471 8.53921 21.3417 6.90945 23.414C5.74263 24.8963 4.38901 26.2323 3.05164 27.7064C3.05028 27.7023 3.05976 27.7713 3.09901 27.8106C3.2276 27.9419 3.36161 28.0678 3.50239 28.1856C6.90133 31.0282 9.20383 34.557 10.2421 38.8873C10.3043 39.1445 10.4072 39.5357 10.5845 39.5979C11.5023 39.9187 12.4403 40.2734 13.3946 40.36C13.8048 40.3966 14.2718 39.8145 14.7104 39.5113C15.3804 39.0456 15.2897 38.5854 14.7997 38.002C13.0075 35.866 11.8989 33.3997 11.4062 30.6559M43.9404 28.658C43.5492 32.2803 42.377 35.579 39.9648 38.3783C39.843 38.5191 39.801 38.8561 39.8823 39.024C40.3682 40.0351 41.4254 40.559 42.5272 40.2774C43.5194 40.0243 44.5888 39.9769 44.9082 38.5624C45.7069 35.0376 47.518 32.0393 50.0804 29.4972C50.7234 28.8583 51.4016 28.2559 52.0553 27.6441C51.9714 27.4898 51.9471 27.3869 51.8834 27.3341C48.207 24.39 45.8477 20.6161 44.739 16.0449C44.6917 15.8514 44.5631 15.5739 44.4128 15.5279C43.4815 15.2409 42.5408 14.8754 41.5865 14.8199C41.1506 14.7942 40.6714 15.4115 40.2207 15.7472C39.6494 16.1735 39.5831 16.5498 40.1097 17.163C41.711 19.027 42.7912 21.1873 43.3597 23.5819C43.6182 24.6702 43.7793 25.7802 43.9959 26.9402M24.7989 43.8713C21.9035 43.3569 19.3181 42.1617 17.0196 40.3235C16.7922 40.1421 16.3063 40.0013 16.1005 40.1204C14.8782 40.8256 14.6413 41.4619 14.9486 42.8642C15.0339 43.2527 15.0501 43.6994 15.2613 44.008C15.5266 44.3979 15.911 44.8594 16.3279 44.9677C20.4971 46.0506 23.9732 48.2083 26.763 51.4854C26.9917 51.7534 27.2435 52.0011 27.5102 52.2854C27.7051 52.1081 27.831 52.0201 27.923 51.905C30.7873 48.3342 34.461 46.0466 38.8901 44.9231C39.1906 44.8473 39.5506 44.5386 39.6576 44.253C39.9269 43.541 40.1273 42.7911 40.2437 42.0385C40.3993 41.0355 39.5141 40.605 38.9077 40.115C38.7303 39.9715 38.0359 40.2896 37.6989 40.5495C35.1311 42.5339 32.2492 43.6953 29.0222 44.0161M38.8143 8.95334C37.6244 5.33376 31.747 2.058 29.0519 2.66307C31.613 5.78722 34.7872 7.84066 38.8143 8.95334ZM26.0456 2.5805C23.2476 1.85631 16.5824 6.33544 16.5621 8.84911C20.3698 7.77704 23.4818 5.72631 26.0456 2.5805ZM8.89521 16.4754C5.08477 17.9942 1.98227 23.9663 2.63743 26.1281C5.75616 23.6198 7.75005 20.4564 8.89521 16.4754ZM46.339 16.5444C46.5177 19.5887 50.5745 25.4012 52.5481 25.9318C52.6036 22.6466 49.386 17.8358 46.339 16.5444ZM52.4926 29.328C50.2077 30.2552 46.2361 36.4061 46.4744 38.5638C49.2669 37.4795 52.6834 32.2816 52.4926 29.328ZM16.6149 46.4757C17.3431 49.3318 23.8243 53.5104 25.8777 52.4939C23.4019 49.5579 20.4226 47.4855 16.6149 46.4757ZM29.0763 52.613C32.2451 52.927 37.8153 49.1423 38.3743 46.4635C34.641 47.5247 31.632 49.5321 29.0763 52.613ZM8.6123 38.5556C8.55139 36.1286 4.86278 30.3906 2.6442 29.4349C2.20698 31.9229 5.63028 37.5336 8.6123 38.5556ZM44.3127 14.0172C44.3127 13.2416 44.3167 12.6379 44.3127 12.0342C44.3063 11.2121 43.8809 10.7956 43.0362 10.7848C41.1086 10.7604 41.0978 10.7618 41.535 12.7083C41.6014 13.0007 41.7624 13.4311 41.9777 13.5015C42.6897 13.737 43.4463 13.8372 44.314 14.0159L44.3127 14.0172ZM10.77 13.9996C11.597 13.8264 12.3957 13.6815 13.1781 13.4771C13.3256 13.4379 13.4664 13.1753 13.5165 12.9912C13.6599 12.4619 13.7439 11.9164 13.8738 11.3831C13.9875 10.9134 13.863 10.6792 13.3405 10.713C12.6705 10.7564 11.995 10.7415 11.3304 10.8227C11.1287 10.8471 10.8065 11.1015 10.797 11.2653C10.7429 12.1357 10.7713 13.0115 10.7713 14.001L10.77 13.9996ZM44.2341 41.2927C43.5736 41.4294 42.9875 41.5593 42.3986 41.6717C41.7733 41.7921 40.8961 43.7522 41.2426 44.2828C41.2887 44.3518 41.3821 44.4371 41.4511 44.4358C42.2741 44.4182 43.0985 44.3992 43.9187 44.3369C44.0325 44.3288 44.2138 44.0811 44.2193 43.939C44.2477 43.0957 44.2328 42.251 44.2328 41.2927H44.2341ZM10.8038 41.2994C10.8038 42.2334 10.7808 43.0483 10.8214 43.8618C10.8309 44.0432 11.0624 44.3559 11.2045 44.3627C12.0708 44.41 12.9412 44.3857 13.9158 44.3857C13.7439 43.5979 13.599 42.8588 13.4109 42.1305C13.373 41.983 13.1929 41.7989 13.0454 41.7624C12.3199 41.5864 11.5835 41.4551 10.8038 41.2981V41.2994Z" fill="#C09467"/>
<path d="M27.5579 10.9551C18.5211 10.9551 11.1953 18.4162 11.1953 27.6208C11.1953 36.8254 18.5211 44.2866 27.5579 44.2866C36.5946 44.2866 43.9204 36.8254 43.9204 27.6208C43.9204 18.4162 36.5946 10.9551 27.5579 10.9551ZM27.5579 42.3536C19.4483 42.3536 12.8752 35.6586 12.8752 27.3988C12.8752 19.1391 19.4483 12.4441 27.5579 12.4441C35.6674 12.4441 42.2406 19.1391 42.2406 27.3988C42.2406 35.6586 35.6674 42.3536 27.5579 42.3536Z" fill="#C09467"/>
</svg>
