<svg width="150" height="88" viewBox="0 0 150 88" fill="none" xmlns="http://www.w3.org/2000/svg">
<g clip-path="url(#clip0_2_32)">
<path d="M148.11 20.7158C148.11 22.097 147.844 23.2721 147.312 24.241C146.785 25.2099 146.065 25.95 145.152 26.4613C144.244 26.9684 143.222 27.222 142.088 27.222C140.945 27.222 139.92 26.9663 139.011 26.4551C138.103 25.9438 137.385 25.2037 136.857 24.2348C136.33 23.2659 136.066 22.0929 136.066 20.7158C136.066 19.3346 136.33 18.1595 136.857 17.1906C137.385 16.2216 138.103 15.4836 139.011 14.9765C139.92 14.4652 140.945 14.2096 142.088 14.2096C143.222 14.2096 144.244 14.4652 145.152 14.9765C146.065 15.4836 146.785 16.2216 147.312 17.1906C147.844 18.1595 148.11 19.3346 148.11 20.7158ZM145.353 20.7158C145.353 19.8211 145.217 19.0666 144.945 18.4522C144.677 17.8379 144.298 17.372 143.809 17.0545C143.319 16.737 142.745 16.5783 142.088 16.5783C141.431 16.5783 140.857 16.737 140.367 17.0545C139.878 17.372 139.497 17.8379 139.225 18.4522C138.957 19.0666 138.823 19.8211 138.823 20.7158C138.823 21.6105 138.957 22.365 139.225 22.9793C139.497 23.5937 139.878 24.0596 140.367 24.3771C140.857 24.6945 141.431 24.8533 142.088 24.8533C142.745 24.8533 143.319 24.6945 143.809 24.3771C144.298 24.0596 144.677 23.5937 144.945 22.9793C145.217 22.365 145.353 21.6105 145.353 20.7158Z" fill="#273856"/>
<path d="M124.844 27.0488V14.3828H129.917C130.893 14.3828 131.724 14.5662 132.41 14.9332C133.097 15.296 133.62 15.8011 133.98 16.4484C134.344 17.0916 134.526 17.8338 134.526 18.6749C134.526 19.516 134.342 20.2581 133.974 20.9013C133.605 21.5445 133.072 22.0455 132.372 22.4042C131.677 22.7629 130.836 22.9422 129.848 22.9422H126.614V20.7962H129.409C129.932 20.7962 130.363 20.7075 130.702 20.5302C131.045 20.3488 131.301 20.0994 131.468 19.7819C131.64 19.4603 131.726 19.0913 131.726 18.6749C131.726 18.2543 131.64 17.8874 131.468 17.574C131.301 17.2565 131.045 17.0112 130.702 16.838C130.359 16.6607 129.923 16.5721 129.396 16.5721H127.562V27.0488H124.844Z" fill="#273856"/>
<path d="M119.887 14.3828H122.606V22.6083C122.606 23.5318 122.382 24.3399 121.934 25.0326C121.491 25.7253 120.869 26.2654 120.07 26.653C119.27 27.0364 118.339 27.2281 117.275 27.2281C116.208 27.2281 115.274 27.0364 114.475 26.653C113.675 26.2654 113.053 25.7253 112.61 25.0326C112.166 24.3399 111.944 23.5318 111.944 22.6083V14.3828H114.663V22.3794C114.663 22.8618 114.77 23.2906 114.983 23.6658C115.201 24.041 115.507 24.3358 115.9 24.5502C116.294 24.7646 116.752 24.8718 117.275 24.8718C117.803 24.8718 118.261 24.7646 118.65 24.5502C119.044 24.3358 119.347 24.041 119.561 23.6658C119.779 23.2906 119.887 22.8618 119.887 22.3794V14.3828Z" fill="#273856"/>
<path d="M100.34 27.0488V14.3828H105.414C106.385 14.3828 107.214 14.5539 107.9 14.8961C108.591 15.2342 109.116 15.7145 109.476 16.3371C109.841 16.9555 110.023 17.6833 110.023 18.5202C110.023 19.3613 109.839 20.0849 109.47 20.691C109.102 21.293 108.568 21.7548 107.869 22.0764C107.174 22.398 106.333 22.5588 105.345 22.5588H101.948V20.4065H104.905C105.424 20.4065 105.855 20.3365 106.199 20.1963C106.542 20.0561 106.797 19.8458 106.965 19.5654C107.136 19.2851 107.222 18.9367 107.222 18.5202C107.222 18.0997 107.136 17.7451 106.965 17.4565C106.797 17.1679 106.54 16.9494 106.192 16.8009C105.849 16.6484 105.416 16.5721 104.893 16.5721H103.059V27.0488H100.34ZM107.285 21.2848L110.481 27.0488H107.48L104.353 21.2848H107.285Z" fill="#273856"/>
<path d="M95.4155 18.477C95.3276 18.176 95.2041 17.91 95.045 17.6792C94.8859 17.4441 94.6913 17.2462 94.461 17.0854C94.235 16.9205 93.9754 16.7948 93.6824 16.7082C93.3935 16.6216 93.0733 16.5783 92.7216 16.5783C92.0644 16.5783 91.4867 16.7391 90.9886 17.0607C90.4946 17.3823 90.1095 17.8503 89.8332 18.4646C89.5569 19.0748 89.4187 19.8211 89.4187 20.7034C89.4187 21.5858 89.5548 22.3361 89.8269 22.9546C90.099 23.5731 90.4841 24.0452 90.9823 24.3709C91.4804 24.6925 92.0686 24.8533 92.7468 24.8533C93.3621 24.8533 93.8875 24.7461 94.3229 24.5317C94.7624 24.3132 95.0973 24.006 95.3276 23.6102C95.562 23.2144 95.6792 22.7464 95.6792 22.2063L96.2318 22.2867H92.9163V20.2705H98.2977V21.8661C98.2977 22.9793 98.0591 23.9359 97.5818 24.7358C97.1046 25.5315 96.4474 26.1459 95.6101 26.5788C94.7729 27.0076 93.8142 27.222 92.7342 27.222C91.5286 27.222 90.4695 26.9602 89.5569 26.4365C88.6443 25.9088 87.9326 25.1604 87.4219 24.1915C86.9154 23.2185 86.6621 22.064 86.6621 20.7282C86.6621 19.7015 86.8128 18.7862 87.1142 17.9822C87.4198 17.1741 87.8468 16.4896 88.3952 15.9289C88.9436 15.3682 89.582 14.9414 90.3104 14.6487C91.0388 14.356 91.8279 14.2096 92.6777 14.2096C93.4061 14.2096 94.0843 14.3147 94.7122 14.525C95.3401 14.7312 95.8969 15.0239 96.3825 15.4032C96.8723 15.7825 97.2721 16.234 97.5818 16.7576C97.8916 17.2772 98.0905 17.8503 98.1784 18.477H95.4155Z" fill="#D3B879"/>
<path d="M140.391 47.9478H137.478L141.917 35.2818H145.421L149.854 47.9478H146.94L143.719 38.1762H143.619L140.391 47.9478ZM140.209 42.9692H147.091V45.0596H140.209V42.9692Z" fill="#273856"/>
<path d="M133.647 39.376C133.559 39.075 133.436 38.809 133.277 38.5781C133.118 38.3431 132.923 38.1452 132.693 37.9844C132.467 37.8195 132.207 37.6937 131.914 37.6072C131.625 37.5206 131.305 37.4773 130.953 37.4773C130.296 37.4773 129.718 37.6381 129.22 37.9597C128.726 38.2813 128.341 38.7492 128.065 39.3636C127.789 39.9738 127.65 40.7201 127.65 41.6024C127.65 42.4847 127.786 43.2351 128.059 43.8536C128.331 44.4721 128.716 44.9441 129.214 45.2699C129.712 45.5915 130.3 45.7523 130.978 45.7523C131.594 45.7523 132.119 45.6451 132.555 45.4307C132.994 45.2121 133.329 44.905 133.559 44.5092C133.794 44.1133 133.911 43.6454 133.911 43.1053L134.463 43.1857H131.148V41.1695H136.529V42.7651C136.529 43.8783 136.291 44.8349 135.814 45.6348C135.336 46.4305 134.679 47.0448 133.842 47.4778C133.005 47.9066 132.046 48.121 130.966 48.121C129.76 48.121 128.701 47.8591 127.789 47.3355C126.876 46.8078 126.164 46.0594 125.654 45.0905C125.147 44.1175 124.894 42.963 124.894 41.6271C124.894 40.6005 125.045 39.6852 125.346 38.8812C125.652 38.0731 126.078 37.3886 126.627 36.8279C127.175 36.2672 127.814 35.8404 128.542 35.5477C129.27 35.255 130.06 35.1086 130.909 35.1086C131.638 35.1086 132.316 35.2137 132.944 35.424C133.572 35.6301 134.129 35.9229 134.614 36.3022C135.104 36.6815 135.504 37.133 135.814 37.6566C136.123 38.1761 136.322 38.7492 136.41 39.376H133.647Z" fill="#273856"/>
<path d="M116.814 47.9478H112.255V35.2818H116.852C118.145 35.2818 119.259 35.5353 120.192 36.0425C121.126 36.5455 121.844 37.2691 122.346 38.2133C122.853 39.1574 123.106 40.2872 123.106 41.6024C123.106 42.9218 122.853 44.0556 122.346 45.0039C121.844 45.9523 121.122 46.68 120.18 47.1871C119.242 47.6942 118.12 47.9478 116.814 47.9478ZM114.974 45.6533H116.701C117.505 45.6533 118.181 45.5131 118.729 45.2328C119.282 44.9483 119.696 44.5092 119.972 43.9155C120.253 43.3176 120.393 42.5466 120.393 41.6024C120.393 40.6665 120.253 39.9017 119.972 39.3079C119.696 38.7142 119.284 38.2772 118.735 37.9968C118.187 37.7164 117.511 37.5763 116.707 37.5763H114.974V45.6533Z" fill="#273856"/>
<path d="M101.244 47.9478H98.3306L102.77 35.2818H106.274L110.707 47.9478H107.793L104.572 38.1762H104.472L101.244 47.9478ZM101.062 42.9692H107.944V45.0596H101.062V42.9692Z" fill="#273856"/>
<path d="M91.447 47.9478H86.8882V35.2818H91.4846C92.7782 35.2818 93.8917 35.5353 94.8252 36.0425C95.7588 36.5455 96.4767 37.2691 96.979 38.2133C97.4856 39.1574 97.7388 40.2872 97.7388 41.6024C97.7388 42.9218 97.4856 44.0556 96.979 45.0039C96.4767 45.9523 95.7546 46.68 94.8127 47.1871C93.875 47.6942 92.7531 47.9478 91.447 47.9478ZM89.6071 45.6533H91.3339C92.1377 45.6533 92.8138 45.5131 93.3622 45.2328C93.9147 44.9483 94.3292 44.5092 94.6055 43.9155C94.8859 43.3176 95.0262 42.5466 95.0262 41.6024C95.0262 40.6665 94.8859 39.9017 94.6055 39.3079C94.3292 38.7142 93.9168 38.2772 93.3684 37.9968C92.82 37.7164 92.144 37.5763 91.3402 37.5763H89.6071V45.6533Z" fill="#D3B879"/>
<path d="M132.372 56.1808H135.725L139.267 64.6908H139.418L142.959 56.1808H146.312V68.8468H143.675V60.6027H143.568L140.24 68.785H138.444L135.116 60.5718H135.01V68.8468H132.372V56.1808Z" fill="#273856"/>
<path d="M121.362 68.8468H118.448L122.887 56.1808H126.391L130.825 68.8468H127.911L124.69 59.0751H124.589L121.362 68.8468ZM121.18 63.8682H128.062V65.9586H121.18V63.8682Z" fill="#273856"/>
<path d="M108.415 58.3887V56.1808H118.977V58.3887H115.04V68.8468H112.352V58.3887H108.415Z" fill="#273856"/>
<path d="M99.4656 68.8468H96.552L100.991 56.1808H104.495L108.929 68.8468H106.015L102.794 59.0751H102.693L99.4656 68.8468ZM99.2835 63.8682H106.166V65.9586H99.2835V63.8682Z" fill="#273856"/>
<path d="M86.8882 68.8468V56.1808H89.6071V66.6389H95.1204V68.8468H86.8882Z" fill="#D3B879"/>
<path d="M62.4918 63.4199C62.1867 63.4202 61.9131 63.4057 61.6807 63.3936C61.5511 63.3868 61.422 63.3783 61.2947 63.3783H54.0757V55.5696H57.7321C58.8448 55.5696 59.9574 55.5696 61.07 55.5696C61.2628 55.5697 61.4939 55.6201 61.6666 55.5082C61.8027 55.42 61.8846 55.2427 61.9772 55.1113C62.8046 53.9358 63.6575 52.7241 64.4743 51.5238V37.5027C64.4743 37.3291 64.4756 37.1554 64.4769 36.9816C64.4863 36.894 64.4893 36.8059 64.4858 36.7179C64.4255 36.3305 64.078 36.0072 63.8654 35.6873L60.1983 30.1733C58.9635 30.1762 57.7291 30.1758 56.4951 30.1718C55.694 30.1703 54.8929 30.1693 54.0918 30.1687H29.8562V22.36H54.0918C54.898 22.36 55.7042 22.3611 56.5104 22.3631C58.1078 22.3661 59.7054 22.3692 61.3022 22.36C61.3459 22.3599 61.3865 22.3578 61.4249 22.3564C62.1004 22.3326 64.1556 22.2572 65.7158 24.2409C65.9023 24.482 66.0754 24.733 66.2343 24.9926C66.2605 25.0345 66.2865 25.0765 66.3134 25.117L70.4974 31.4085C70.5652 31.5104 70.6591 31.6354 70.7679 31.7803C71.3618 32.571 72.3559 33.8945 72.4016 35.939C72.4099 36.305 72.4076 36.6722 72.4049 37.0391C72.4038 37.1937 72.4026 37.3482 72.4026 37.5027V51.6178C72.4026 51.6828 72.4045 51.7435 72.4059 51.8011C72.4223 52.4499 72.4562 53.7999 71.4625 55.2768L71.3346 55.4666C70.3996 56.8513 69.4302 58.2285 68.4928 59.5601L68.1804 60.0041C68.1285 60.0778 68.0796 60.1583 68.0288 60.2388C67.5528 60.9932 66.5623 62.5624 64.5037 63.1549C63.8494 63.3378 63.1719 63.427 62.4918 63.4199Z" fill="#273856"/>
<path d="M56.5697 66.0862H56.5693V55.4069H56.5664V39.8429H32.5701V47.5915H48.2923C48.3827 47.9276 48.4759 48.1133 48.4763 48.2991C48.4882 54.8524 48.5106 61.4058 48.4539 67.9585C48.45 68.4057 47.9418 69.009 47.5029 69.2669C44.147 71.2385 40.7662 73.171 37.3466 75.0328C36.8933 75.2796 36.0589 75.2714 35.6031 75.0224C32.1418 73.1313 28.7221 71.1655 25.3171 69.1769C24.9481 68.9615 24.543 68.4662 24.5186 68.0785C24.4254 66.5953 24.4809 65.1031 24.4809 63.4385H44.7279V55.4972H8.50267V31.9242H16.4388V51.7885H24.4751C24.4751 50.9913 24.4751 50.3507 24.4751 49.7102C24.4742 39.8049 24.4869 29.8996 24.4521 19.9944C24.4486 18.9854 24.707 18.3657 25.6521 17.8523C28.9402 16.0664 32.1946 14.2206 35.4151 12.3151C36.2328 11.8339 36.8217 11.8855 37.6112 12.3491C40.5745 14.0894 43.5755 15.7682 46.5775 17.4436C47.6865 18.0626 48.884 18.5726 48.5893 20.1538H56.5787C56.5787 18.5249 56.5332 16.9832 56.5949 15.4457C56.6352 14.4431 56.3361 13.8149 55.3913 13.2854C49.3474 9.89873 43.3526 6.42711 37.3054 3.04628C36.8699 2.8028 36.0312 2.85706 35.5752 3.11179C29.6153 6.44098 23.7036 9.85395 17.7445 13.1845C16.7278 13.7528 16.3265 14.3965 16.3618 15.552C16.4452 18.2837 16.3886 21.0195 16.3886 23.9155H0.43335V63.4853H16.3894C16.3894 66.4378 16.418 69.2331 16.3729 72.0273C16.3583 72.9287 16.6401 73.4867 17.462 73.9488C23.5446 77.3687 29.594 80.8461 35.6836 84.2538C36.0961 84.4846 36.8685 84.4981 37.2759 84.2701C43.2777 80.9112 49.2324 77.4704 55.2355 74.1137C56.2598 73.5409 56.6384 72.8856 56.605 71.7395C56.5505 69.8677 56.5592 67.9919 56.5697 66.0862Z" fill="#273856"/>
</g>
<defs>
<clipPath id="clip0_2_32">
<rect width="150" height="83" fill="white" transform="translate(0 2)"/>
</clipPath>
</defs>
</svg>
