<svg width="150" height="88" viewBox="0 0 150 88" fill="none" xmlns="http://www.w3.org/2000/svg">
<path d="M39.5473 51.7724C39.5473 50.763 39.5389 49.8571 39.5609 48.9529C39.5626 48.8732 39.7526 48.7375 39.8629 48.729C42.1717 48.5441 43.3355 46.8884 43.7426 44.7899C44.1565 42.6592 43.7748 40.7354 42.3108 39.1018C41.3608 38.0415 40.1598 37.29 38.7415 37.1662C36.8348 37.0016 34.911 37.0118 32.994 36.9745C32.5275 36.966 32.1781 37.3663 32.156 37.8871C32.1306 38.4724 32.1306 39.0594 32.156 39.6446C32.1815 40.2418 32.6565 40.654 33.2621 40.6489C34.4988 40.637 35.7338 40.6235 36.9705 40.6133C37.5354 40.6082 37.8865 40.9068 37.9103 41.4445C37.9307 41.8992 37.9306 42.3555 37.9137 42.8102C37.895 43.2903 37.5846 43.6041 37.1062 43.6058C34.7295 43.6143 32.3511 43.6109 29.9744 43.6092C29.574 43.6092 29.3382 43.3853 29.2365 43.0222C29.1839 42.8373 29.1635 42.6371 29.1635 42.4454C29.1601 40.0043 29.1635 37.5631 29.1669 35.1203C29.1669 34.177 29.3739 33.9582 30.3137 33.965C32.9024 33.9837 35.4946 33.9379 38.0765 34.0668C40.2989 34.177 42.226 35.1304 43.8156 36.6878C46.4196 39.2426 47.3289 42.3538 46.5214 45.8858C45.8835 48.673 44.2617 50.6884 41.3999 51.4908C40.8315 51.6503 40.2259 51.6757 39.549 51.7758L39.5473 51.7724Z" fill="#010101"/>
<path d="M38.1513 49.822C38.1513 51.1079 38.153 52.3938 38.1513 53.6813C38.1513 54.3582 37.8511 54.6585 37.1657 54.6602C34.8687 54.6636 32.5718 54.6924 30.2765 54.6551C26.9142 54.6008 24.1626 53.242 22.2524 50.4734C20.2625 47.5895 19.947 44.4647 21.3329 41.1973C22.4203 38.6323 24.3611 37.2531 27.094 36.9189C27.7471 36.8392 27.7845 36.8765 27.7777 37.5381C27.7692 38.1726 27.7675 38.8088 27.7692 39.4432C27.7692 39.6689 27.7641 39.8639 27.4604 39.8911C25.1974 40.0913 24.1117 41.5485 23.6095 43.574C23.1905 45.2637 23.3551 46.9126 24.222 48.4428C25.2093 50.185 26.7564 51.2063 28.7022 51.493C29.9796 51.6813 31.2944 51.6185 32.5921 51.6558C33.1299 51.6711 33.6677 51.6694 34.2037 51.649C34.8111 51.6253 35.152 51.247 35.1554 50.6397C35.1588 50.1358 35.1741 49.6303 35.1758 49.1264C35.1792 48.4021 34.8094 48.0085 34.0748 48C32.8703 47.9864 31.6642 48.0017 30.4597 48.0034C29.564 48.0034 29.4147 47.8524 29.4164 46.9516C29.4164 46.6259 29.4079 46.3002 29.4079 45.9745C29.4079 45.228 29.6234 45.0075 30.3664 45.0109C32.4021 45.0211 34.4378 45.0363 36.4719 45.0482C36.6839 45.0482 36.896 45.0533 37.1063 45.0414C37.8765 44.999 38.153 45.262 38.1496 46.0101C38.1428 47.2807 38.1479 48.5497 38.1496 49.8203L38.1513 49.822Z" fill="#010101"/>
<path d="M10.6157 21.6258C12.3969 21.6258 13.9695 21.6427 15.5404 21.619C16.5362 21.6037 17.1758 21.1491 17.6847 20.2092C21.5339 13.1029 29.368 9.65746 37.2479 11.4828C42.6544 12.7348 46.7326 15.6696 49.3061 20.6503C49.5216 21.0676 50.1424 21.4765 50.6107 21.524C52.0594 21.6665 53.5251 21.6665 54.984 21.6529C55.6898 21.6461 55.9188 21.8734 55.8984 22.5859C55.8594 24.0449 55.8187 25.5174 55.9765 26.9627C56.0392 27.5344 56.5023 28.2673 56.9977 28.554C64.3636 32.8069 67.8701 40.6054 65.8649 48.8806C64.6774 53.7866 61.7273 57.5035 57.3285 59.9888C56.3955 60.5164 55.9629 61.1559 55.951 62.1653C55.9357 63.3952 55.8543 64.6302 55.9341 65.855C55.9985 66.8576 55.7559 67.2274 54.6736 67.1358C53.4183 67.0307 52.1425 67.1613 50.8753 67.1748C49.8965 67.185 49.3078 67.6261 48.7972 68.5049C45.2788 74.5475 39.9944 77.8149 32.9899 77.7215C26.2839 77.6316 21.1844 74.4135 17.7542 68.6711C17.1673 67.6906 16.5498 67.1732 15.4386 67.1698C14.2104 67.1664 12.9771 67.0527 11.7523 67.1206C10.8684 67.1698 10.5071 67.0069 10.5648 66.0179C10.6411 64.7184 10.5292 63.4071 10.4969 62.1008C10.4732 61.0982 10.0236 60.4706 9.10586 59.9447C4.04881 57.0523 1.06818 52.6721 0.191128 46.9195C-0.901371 39.764 2.7714 32.298 9.11774 28.8186C10.1899 28.23 10.6259 27.5022 10.6208 26.3673C10.6123 24.8388 10.6191 23.3086 10.6191 21.6275L10.6157 21.6258ZM33.2223 63.3494C42.8308 63.3765 52.1595 55.7443 52.1612 44.0305C52.1612 33.8231 43.7164 25.4919 33.5887 25.3257C23.2931 25.156 14.436 33.5381 14.2986 43.5487C14.1476 54.5755 22.377 63.1865 33.2206 63.3494H33.2223ZM34.3606 23.7548C38.9664 24.1517 43.0938 25.7074 46.6241 28.7525C46.8141 28.917 47.2161 29.0273 47.4282 28.9391C48.6411 28.4386 49.4622 26.7608 49.1874 25.4393C49.0703 24.8761 49.0398 24.245 48.7514 23.7802C48.4443 23.2866 47.9371 22.7149 47.4163 22.5876C43.0582 21.5206 39.27 19.4475 36.0485 16.3448C35.09 15.4202 34.2232 14.4007 33.246 13.354C33.0357 13.5185 32.8915 13.5915 32.8016 13.7068C29.2187 18.2991 24.5858 21.2441 18.9214 22.591C18.6398 22.6572 18.3226 22.8167 18.1461 23.0321C16.9247 24.5216 17.1181 27.0187 18.4277 28.42C19.0825 29.1206 19.5117 29.0799 20.2209 28.4844C22.9453 26.1908 26.0667 24.6997 29.6021 24.1246M12.7634 43.0466C13.0738 38.4425 14.7702 34.41 17.7152 30.8747C17.873 30.6847 17.9103 30.2046 17.7814 29.9942C16.7805 28.3555 15.8509 28.0111 14.0187 28.5167C13.5742 28.6388 13.0534 28.6642 12.7091 28.9221C12.2324 29.2783 11.6607 29.755 11.5284 30.2809C10.7192 33.4923 9.44854 36.4933 7.40604 39.0905C5.94372 40.9481 4.24729 42.6225 2.57122 44.4699C2.56952 44.4648 2.5814 44.5513 2.63059 44.6005C2.79175 44.765 2.9597 44.9228 3.13613 45.0704C7.39586 48.6329 10.2815 53.0555 11.5826 58.4824C11.6607 58.8047 11.7896 59.2949 12.0118 59.373C13.162 59.775 14.3376 60.2195 15.5336 60.3281C16.0476 60.3739 16.6329 59.6444 17.1825 59.2644C18.0223 58.6808 17.9086 58.1041 17.2945 57.3729C15.0484 54.6959 13.6591 51.605 13.0416 48.1664M53.8152 45.6624C53.3249 50.2021 51.8558 54.3363 48.8328 57.8445C48.6801 58.0209 48.6275 58.4433 48.7293 58.6537C49.3383 59.9209 50.6633 60.5774 52.0441 60.2246C53.2876 59.9074 54.6278 59.848 55.0282 58.0752C56.029 53.6577 58.2989 49.9001 61.5102 46.7142C62.316 45.9135 63.1659 45.1586 63.9853 44.3918C63.8801 44.1984 63.8496 44.0695 63.7699 44.0033C59.1624 40.3136 56.2055 35.584 54.8161 29.8551C54.7567 29.6125 54.5956 29.2648 54.4073 29.2071C53.2401 28.8475 52.0611 28.3894 50.8651 28.3199C50.3189 28.2876 49.7183 29.0612 49.1534 29.4819C48.4375 30.0163 48.3544 30.4879 49.0143 31.2564C51.0212 33.5924 52.3749 36.2999 53.0874 39.3008C53.4115 40.6648 53.6133 42.0558 53.8848 43.5097M29.826 64.7286C26.1974 64.084 22.9572 62.586 20.0767 60.2823C19.7917 60.0549 19.1826 59.8785 18.9248 60.0278C17.3929 60.9116 17.096 61.709 17.4811 63.4665C17.588 63.9533 17.6084 64.5132 17.873 64.8999C18.2055 65.3885 18.6873 65.967 19.2098 66.1027C24.4348 67.4598 28.7912 70.164 32.2875 74.271C32.5742 74.6069 32.8898 74.9173 33.224 75.2736C33.4683 75.0514 33.626 74.9411 33.7414 74.7969C37.331 70.3217 41.9351 67.4548 47.4858 66.0467C47.8625 65.9517 48.3137 65.5649 48.4477 65.207C48.7853 64.3147 49.0364 63.3749 49.1823 62.4316C49.3774 61.1746 48.2679 60.6351 47.5079 60.021C47.2857 59.8412 46.4154 60.2399 45.993 60.5656C42.7749 63.0525 39.1632 64.5081 35.1189 64.9101M47.3908 20.9675C45.8997 16.4313 38.5338 12.3259 35.1562 13.0842C38.3658 16.9996 42.344 19.5731 47.3908 20.9675ZM31.3884 12.9808C27.8819 12.0732 19.5287 17.6867 19.5033 20.8369C24.2753 19.4933 28.1754 16.9233 31.3884 12.9808ZM9.8947 30.3946C5.11925 32.298 1.23104 39.7826 2.05211 42.4918C5.96068 39.3483 8.45952 35.3838 9.8947 30.3946ZM56.8213 30.4811C57.0452 34.2964 62.1294 41.5808 64.6028 42.2458C64.6723 38.1286 60.6399 32.0995 56.8213 30.4811ZM64.5332 46.5022C61.6697 47.6642 56.6924 55.3728 56.9909 58.0769C60.4907 56.7181 64.7724 50.2038 64.5332 46.5022ZM19.5694 67.9925C20.4821 71.572 28.6046 76.8089 31.1781 75.5349C28.0753 71.8553 24.3415 69.2581 19.5694 67.9925ZM35.1867 75.6841C39.1581 76.0777 46.1389 71.3345 46.8395 67.9773C42.1608 69.3073 38.3896 71.8231 35.1867 75.6841ZM9.54014 58.0667C9.46381 55.025 4.84104 47.8339 2.06059 46.6362C1.51265 49.7542 5.80291 56.7859 9.54014 58.0667ZM54.2817 27.3139C54.2817 26.3418 54.2868 25.5852 54.2817 24.8286C54.2738 23.7983 53.7406 23.2764 52.682 23.2628C50.2663 23.2323 50.2527 23.234 50.8007 25.6734C50.8838 26.0399 51.0857 26.5793 51.3554 26.6675C52.2477 26.9627 53.196 27.0883 54.2834 27.3122L54.2817 27.3139ZM12.2443 27.2918C13.2808 27.0747 14.2817 26.8932 15.2622 26.637C15.4471 26.5878 15.6235 26.2587 15.6863 26.028C15.8661 25.3647 15.9713 24.681 16.1342 24.0126C16.2767 23.424 16.1206 23.1305 15.4658 23.1729C14.626 23.2272 13.7795 23.2085 12.9466 23.3103C12.6938 23.3409 12.2901 23.6598 12.2782 23.865C12.2103 24.9558 12.2459 26.0534 12.2459 27.2935L12.2443 27.2918ZM54.1833 61.4969C53.3555 61.6682 52.6209 61.8311 51.883 61.9719C51.0992 62.1229 50 64.5793 50.4342 65.2443C50.4919 65.3308 50.609 65.4377 50.6955 65.436C51.7269 65.414 52.76 65.3902 53.7881 65.3122C53.9306 65.302 54.1579 64.9915 54.1647 64.8134C54.2003 63.7565 54.1816 62.698 54.1816 61.4969H54.1833ZM12.2867 61.5054C12.2867 62.6759 12.2578 63.6972 12.3087 64.7167C12.3206 64.944 12.6107 65.3359 12.7888 65.3444C13.8745 65.4038 14.9653 65.3732 16.1867 65.3732C15.9713 64.3859 15.7898 63.4597 15.554 62.547C15.5065 62.3621 15.2809 62.1314 15.0959 62.0856C14.1867 61.865 13.2638 61.7005 12.2867 61.5037V61.5054Z" fill="#010101"/>
<path d="M33.2838 23.4746C21.9584 23.4746 12.7773 32.8253 12.7773 44.361C12.7773 55.8967 21.9584 65.2474 33.2838 65.2474C44.6091 65.2474 53.7902 55.8967 53.7902 44.361C53.7902 32.8253 44.6091 23.4746 33.2838 23.4746ZM33.2838 62.825C23.1205 62.825 14.8826 54.4344 14.8826 44.0828C14.8826 33.7312 23.1205 25.3407 33.2838 25.3407C43.4471 25.3407 51.6849 33.7312 51.6849 44.0828C51.6849 54.4344 43.4471 62.825 33.2838 62.825Z" fill="#010101"/>
<path d="M85.1948 30.3477C85.0385 29.8694 84.8326 29.4409 84.5769 29.0621C84.3259 28.6786 84.0253 28.3519 83.6749 28.082C83.3293 27.8121 82.9363 27.6062 82.4959 27.4641C82.0556 27.3221 81.5726 27.2511 81.0471 27.2511C80.1853 27.2511 79.4017 27.4736 78.6962 27.9187C77.9907 28.3638 77.4296 29.0195 77.013 29.886C76.5963 30.7525 76.388 31.8155 76.388 33.0749C76.388 34.3344 76.5987 35.3974 77.0201 36.2638C77.4415 37.1303 78.012 37.7861 78.7317 38.2312C79.4514 38.6763 80.2611 38.8988 81.1607 38.8988C81.994 38.8988 82.7279 38.7212 83.3624 38.3661C84.0016 38.0063 84.4988 37.4996 84.8539 36.8462C85.2137 36.1881 85.3936 35.4139 85.3936 34.5238L85.9334 34.6374H81.5584V33.0749H87.0982V34.6374C87.0982 35.8353 86.8425 36.877 86.3311 37.7624C85.8245 38.6478 85.1238 39.3344 84.2289 39.8221C83.3387 40.305 82.316 40.5465 81.1607 40.5465C79.8728 40.5465 78.7412 40.2435 77.7658 39.6374C76.7952 39.0314 76.0376 38.1696 75.4931 37.0522C74.9533 35.9348 74.6834 34.609 74.6834 33.0749C74.6834 31.9244 74.8373 30.8898 75.1451 29.9712C75.4576 29.0479 75.8979 28.262 76.4661 27.6133C77.0343 26.9646 77.7066 26.4674 78.4831 26.1218C79.2596 25.7762 80.1143 25.6033 81.0471 25.6033C81.8141 25.6033 82.5291 25.7193 83.1919 25.9513C83.8596 26.1786 84.4538 26.503 84.9746 26.9244C85.5002 27.341 85.9382 27.8406 86.2885 28.4229C86.6389 29.0006 86.8804 29.6422 87.013 30.3477H85.1948ZM90.1149 40.3477V25.8022H95.0297C96.166 25.8022 97.0988 25.9963 97.8279 26.3846C98.5571 26.7681 99.0969 27.296 99.4473 27.9684C99.7976 28.6407 99.9728 29.4054 99.9728 30.2624C99.9728 31.1194 99.7976 31.8794 99.4473 32.5423C99.0969 33.2051 98.5595 33.726 97.835 34.1048C97.1106 34.4788 96.185 34.6658 95.0581 34.6658H91.0808V33.0749H95.0012C95.7778 33.0749 96.4028 32.9613 96.8762 32.734C97.3545 32.5067 97.7001 32.1848 97.9132 31.7681C98.131 31.3467 98.2399 30.8448 98.2399 30.2624C98.2399 29.68 98.131 29.171 97.9132 28.7354C97.6954 28.2998 97.3474 27.9637 96.8691 27.7269C96.3909 27.4854 95.7588 27.3647 94.9728 27.3647H91.8762V40.3477H90.1149ZM96.9615 33.8136L100.541 40.3477H98.4956L94.9728 33.8136H96.9615ZM112.453 25.8022H114.215V35.4329C114.215 36.4272 113.98 37.315 113.512 38.0962C113.048 38.8728 112.392 39.4859 111.544 39.9357C110.697 40.3808 109.702 40.6033 108.561 40.6033C107.42 40.6033 106.426 40.3808 105.578 39.9357C104.731 39.4859 104.073 38.8728 103.604 38.0962C103.14 37.315 102.908 36.4272 102.908 35.4329V25.8022H104.669V35.2908C104.669 36.0011 104.825 36.6332 105.138 37.1871C105.45 37.7364 105.896 38.1696 106.473 38.4869C107.056 38.7994 107.752 38.9556 108.561 38.9556C109.371 38.9556 110.067 38.7994 110.649 38.4869C111.232 38.1696 111.677 37.7364 111.985 37.1871C112.297 36.6332 112.453 36.0011 112.453 35.2908V25.8022ZM117.732 40.3477V25.8022H122.647C123.788 25.8022 124.721 26.0082 125.445 26.4201C126.174 26.8273 126.714 27.3789 127.064 28.0749C127.415 28.771 127.59 29.5475 127.59 30.4045C127.59 31.2615 127.415 32.0404 127.064 32.7411C126.719 33.4419 126.184 34.0006 125.459 34.4173C124.735 34.8292 123.807 35.0352 122.675 35.0352H119.153V33.4727H122.618C123.4 33.4727 124.027 33.3377 124.501 33.0678C124.974 32.7979 125.317 32.4334 125.53 31.9741C125.748 31.5101 125.857 30.9869 125.857 30.4045C125.857 29.8221 125.748 29.3013 125.53 28.842C125.317 28.3827 124.972 28.0228 124.493 27.7624C124.015 27.4973 123.381 27.3647 122.59 27.3647H119.493V40.3477H117.732ZM142.7 33.0749C142.7 34.609 142.423 35.9348 141.869 37.0522C141.315 38.1696 140.555 39.0314 139.589 39.6374C138.623 40.2435 137.52 40.5465 136.28 40.5465C135.039 40.5465 133.936 40.2435 132.97 39.6374C132.004 39.0314 131.244 38.1696 130.69 37.0522C130.136 35.9348 129.859 34.609 129.859 33.0749C129.859 31.5408 130.136 30.2151 130.69 29.0977C131.244 27.9802 132.004 27.1185 132.97 26.5124C133.936 25.9064 135.039 25.6033 136.28 25.6033C137.52 25.6033 138.623 25.9064 139.589 26.5124C140.555 27.1185 141.315 27.9802 141.869 29.0977C142.423 30.2151 142.7 31.5408 142.7 33.0749ZM140.996 33.0749C140.996 31.8155 140.785 30.7525 140.363 29.886C139.947 29.0195 139.381 28.3638 138.666 27.9187C137.956 27.4736 137.16 27.2511 136.28 27.2511C135.399 27.2511 134.601 27.4736 133.886 27.9187C133.176 28.3638 132.61 29.0195 132.189 29.886C131.772 30.7525 131.564 31.8155 131.564 33.0749C131.564 34.3344 131.772 35.3974 132.189 36.2638C132.61 37.1303 133.176 37.7861 133.886 38.2312C134.601 38.6763 135.399 38.8988 136.28 38.8988C137.16 38.8988 137.956 38.6763 138.666 38.2312C139.381 37.7861 139.947 37.1303 140.363 36.2638C140.785 35.3974 140.996 34.3344 140.996 33.0749Z" fill="#010101"/>
<path d="M79.3652 57.0293H74.8766V42.4838H79.5641C80.9751 42.4838 82.1825 42.775 83.1863 43.3574C84.19 43.9351 84.9595 44.766 85.4945 45.8503C86.0295 46.9299 86.2971 48.2225 86.2971 49.7282C86.2971 51.2433 86.0272 52.5478 85.4874 53.6415C84.9476 54.7305 84.1616 55.5686 83.1294 56.1557C82.0972 56.7381 80.8425 57.0293 79.3652 57.0293ZM76.638 55.4668H79.2516C80.4542 55.4668 81.4509 55.2348 82.2417 54.7708C83.0324 54.3068 83.6219 53.6462 84.0101 52.7892C84.3984 51.9322 84.5925 50.9119 84.5925 49.7282C84.5925 48.5539 84.4007 47.543 84.0172 46.6955C83.6337 45.8432 83.0608 45.1898 82.2985 44.7353C81.5362 44.276 80.5868 44.0463 79.4505 44.0463H76.638V55.4668ZM89.1646 57.0293H87.318L92.6589 42.4838H94.4771L99.818 57.0293H97.9714L93.6248 44.785H93.5112L89.1646 57.0293ZM89.8464 51.3475H97.2896V52.91H89.8464V51.3475ZM111.343 47.0293C111.187 46.5511 110.981 46.1226 110.725 45.7438C110.474 45.3603 110.174 45.0336 109.823 44.7637C109.478 44.4938 109.085 44.2878 108.644 44.1458C108.204 44.0037 107.721 43.9327 107.195 43.9327C106.334 43.9327 105.55 44.1552 104.845 44.6003C104.139 45.0454 103.578 45.7012 103.161 46.5676C102.745 47.4341 102.536 48.4971 102.536 49.7566C102.536 51.016 102.747 52.079 103.169 52.9455C103.59 53.812 104.16 54.4677 104.88 54.9128C105.6 55.3579 106.41 55.5804 107.309 55.5804C108.142 55.5804 108.876 55.4029 109.511 55.0478C110.15 54.6879 110.647 54.1813 111.002 53.5279C111.362 52.8697 111.542 52.0956 111.542 51.2054L112.082 51.3191H107.707V49.7566H113.247V51.3191C113.247 52.517 112.991 53.5587 112.48 54.4441C111.973 55.3295 111.272 56.016 110.377 56.5037C109.487 56.9867 108.464 57.2282 107.309 57.2282C106.021 57.2282 104.89 56.9251 103.914 56.3191C102.944 55.713 102.186 54.8513 101.642 53.7338C101.102 52.6164 100.832 51.2907 100.832 49.7566C100.832 48.606 100.986 47.5714 101.294 46.6529C101.606 45.7296 102.046 44.9436 102.615 44.2949C103.183 43.6462 103.855 43.1491 104.632 42.8034C105.408 42.4578 106.263 42.285 107.195 42.285C107.963 42.285 108.677 42.401 109.34 42.633C110.008 42.8603 110.602 43.1846 111.123 43.606C111.649 44.0227 112.087 44.5222 112.437 45.1046C112.787 45.6822 113.029 46.3238 113.161 47.0293H111.343ZM120.752 57.0293H116.263V42.4838H120.951C122.362 42.4838 123.569 42.775 124.573 43.3574C125.577 43.9351 126.346 44.766 126.881 45.8503C127.416 46.9299 127.684 48.2225 127.684 49.7282C127.684 51.2433 127.414 52.5478 126.874 53.6415C126.334 54.7305 125.548 55.5686 124.516 56.1557C123.484 56.7381 122.229 57.0293 120.752 57.0293ZM118.025 55.4668H120.638C121.841 55.4668 122.838 55.2348 123.628 54.7708C124.419 54.3068 125.009 53.6462 125.397 52.7892C125.785 51.9322 125.979 50.9119 125.979 49.7282C125.979 48.5539 125.787 47.543 125.404 46.6955C125.02 45.8432 124.448 45.1898 123.685 44.7353C122.923 44.276 121.974 44.0463 120.837 44.0463H118.025V55.4668ZM130.551 57.0293H128.705L134.046 42.4838H135.864L141.205 57.0293H139.358L135.012 44.785H134.898L130.551 57.0293ZM131.233 51.3475H138.676V52.91H131.233V51.3475Z" fill="#010101"/>
</svg>
