<svg width="150" height="88" viewBox="0 0 150 88" fill="none" xmlns="http://www.w3.org/2000/svg">
<g clip-path="url(#clip0_1575_2)">
<path d="M43.5035 51.8444C43.5035 50.7352 43.495 49.7386 43.5184 48.742C43.5184 48.6549 43.7288 48.5061 43.8499 48.4955C46.3892 48.2915 47.6706 46.4704 48.1168 44.1627C48.5716 41.8189 48.1529 39.7024 46.5422 37.9047C45.4967 36.7381 44.1772 35.9115 42.6153 35.7755C40.518 35.5949 38.4015 35.6055 36.2936 35.5651C35.7793 35.5545 35.3968 35.9965 35.3713 36.5681C35.3437 37.212 35.3416 37.858 35.3713 38.5018C35.3989 39.1585 35.9217 39.6111 36.5868 39.6047C37.9468 39.5919 39.3068 39.5771 40.6667 39.5643C41.2872 39.5579 41.674 39.8873 41.7016 40.478C41.725 40.9774 41.725 41.481 41.7058 41.9804C41.6846 42.5095 41.3446 42.8538 40.8176 42.8559C38.2039 42.8644 35.5881 42.8601 32.9744 42.8601C32.5345 42.8601 32.2753 42.6136 32.1626 42.2141C32.1053 42.0101 32.0819 41.7913 32.0819 41.5788C32.0776 38.8928 32.0819 36.2069 32.084 33.5209C32.084 32.484 32.3114 32.2417 33.3462 32.2502C36.1937 32.2693 39.0433 32.2205 41.8865 32.3607C44.3302 32.4818 46.4509 33.5316 48.1976 35.2443C51.062 38.0535 52.0607 41.4768 51.1725 45.3612C50.4713 48.4275 48.6863 50.6438 45.5393 51.5257C44.9145 51.7 44.2494 51.7276 43.5035 51.8381V51.8444Z" fill="#010101"/>
<path d="M41.9678 49.7004C41.9678 51.1157 41.9699 52.5309 41.9678 53.944C41.9678 54.6898 41.6384 55.0192 40.884 55.0192C38.3575 55.0234 35.8309 55.0553 33.3064 55.0149C29.609 54.9554 26.5831 53.4595 24.4815 50.4144C22.2928 47.244 21.9464 43.8058 23.47 40.2104C24.6664 37.3884 26.802 35.8712 29.8066 35.5057C30.5249 35.4186 30.5674 35.459 30.5589 36.1878C30.5504 36.8869 30.5483 37.5839 30.5504 38.283C30.5504 38.5317 30.5461 38.7463 30.2104 38.7739C27.7199 38.9949 26.5257 40.5971 25.9732 42.8241C25.5121 44.6834 25.6927 46.496 26.6468 48.179C27.7327 50.0957 29.4348 51.2176 31.5746 51.5343C32.9792 51.7425 34.4263 51.6724 35.8543 51.7128C36.445 51.7298 37.0379 51.7276 37.6286 51.7064C38.2959 51.6809 38.672 51.2644 38.6762 50.5972C38.6805 50.0426 38.6975 49.4879 38.6996 48.9333C38.7017 48.1365 38.2958 47.703 37.4884 47.6945C36.1624 47.6796 34.8364 47.6945 33.5126 47.6987C32.5266 47.6987 32.363 47.533 32.3651 46.5427C32.3651 46.1836 32.3545 45.8266 32.3566 45.4675C32.3566 44.6473 32.5946 44.405 33.4106 44.4072C35.6503 44.4178 37.8879 44.4348 40.1276 44.4475C40.3613 44.4475 40.5929 44.4539 40.8267 44.4412C41.6745 44.3944 41.9784 44.6855 41.9741 45.5079C41.9678 46.904 41.9741 48.3022 41.9741 49.6983L41.9678 49.7004Z" fill="#010101"/>
<path d="M11.6783 18.6873C13.6375 18.6873 15.3672 18.7064 17.0948 18.6809C18.1913 18.6639 18.8925 18.1646 19.4535 17.1297C23.6886 9.312 32.3053 5.5232 40.9708 7.53128C46.9165 8.90825 51.4044 12.1382 54.2348 17.6142C54.4728 18.0732 55.1549 18.5237 55.6692 18.5747C57.2629 18.7319 58.8757 18.7319 60.4801 18.7171C61.2557 18.7107 61.5085 18.9593 61.4873 19.7434C61.4448 21.3478 61.4002 22.967 61.5723 24.5564C61.6403 25.1854 62.1503 25.9908 62.6964 26.3074C70.7988 30.9844 74.6556 39.5629 72.4499 48.6662C71.1431 54.0615 67.9004 58.152 63.0598 60.8847C62.0334 61.4648 61.5574 62.1703 61.5447 63.2795C61.5277 64.6331 61.4384 65.991 61.5255 67.3382C61.5978 68.4411 61.33 68.8469 60.1379 68.747C58.7567 68.6302 57.3542 68.7747 55.9603 68.7895C54.885 68.8002 54.2348 69.2868 53.6738 70.2515C49.8043 76.8984 43.9925 80.4917 36.2874 80.3897C28.9117 80.2919 23.3018 76.7518 19.5279 70.4343C18.8819 69.3548 18.2019 68.7874 16.9822 68.7832C15.6307 68.7789 14.275 68.6535 12.9278 68.7279C11.9545 68.781 11.5572 68.6025 11.6209 67.5167C11.7038 66.0866 11.5827 64.6437 11.5465 63.2073C11.5189 62.1044 11.0259 61.4138 10.0166 60.8358C4.45344 57.6548 1.17463 52.8354 0.209902 46.5072C-0.990699 38.6364 3.04884 30.4256 10.0293 26.5985C11.2087 25.9525 11.6889 25.1493 11.6825 23.902C11.674 22.219 11.6804 20.5381 11.6804 18.6894L11.6783 18.6873ZM36.5445 64.58C47.1141 64.6098 57.3755 56.2162 57.3776 43.3304C57.3776 32.1022 48.0894 22.9393 36.9504 22.7566C25.6265 22.5696 15.8836 31.7898 15.7327 42.8013C15.567 54.9306 24.6172 64.4015 36.5467 64.5821L36.5445 64.58ZM37.7961 21.029C42.862 21.4646 47.4031 23.1773 51.2854 26.5263C51.4936 26.7069 51.9377 26.828 52.1715 26.7324C53.506 26.182 54.4091 24.3354 54.1052 22.8841C53.9756 22.2636 53.9437 21.5688 53.6249 21.0588C53.2871 20.5148 52.7282 19.8879 52.1566 19.7477C47.3627 18.5747 43.1957 16.2925 39.6512 12.8798C38.5951 11.8641 37.6431 10.7421 36.5679 9.59037C36.3363 9.77099 36.1769 9.85174 36.0792 9.97923C32.1374 15.0303 27.0417 18.2708 20.8135 19.7498C20.5054 19.8242 20.1547 19.9963 19.9593 20.2343C18.6142 21.8726 18.8288 24.6202 20.2695 26.1608C20.9899 26.93 21.4616 26.8875 22.2415 26.2309C25.2376 23.7086 28.6716 22.0681 32.5602 21.4349M14.0412 42.2488C14.3834 37.1851 16.2491 32.7503 19.4875 28.8595C19.6618 28.6512 19.7021 28.1221 19.5598 27.8905C18.459 26.0864 17.4369 25.7103 15.4203 26.2649C14.9316 26.3988 14.36 26.4264 13.9796 26.7111C13.4569 27.1043 12.8258 27.6291 12.6813 28.2071C11.7909 31.7388 10.3927 35.041 8.14662 37.8969C6.53802 39.9411 4.67231 41.7813 2.82785 43.8128C2.82573 43.8085 2.83847 43.902 2.89372 43.9573C3.07009 44.1379 3.25497 44.3122 3.45046 44.4737C8.13599 48.3921 11.3086 53.2582 12.7408 59.2272C12.8258 59.5821 12.9681 60.1218 13.2125 60.2068C14.479 60.6488 15.771 61.1376 17.0863 61.2566C17.6516 61.3076 18.2954 60.5065 18.901 60.0857C19.8254 59.444 19.7 58.8107 19.0243 58.0054C16.5529 55.0602 15.0251 51.6603 14.3472 47.88M59.1966 45.1239C58.6568 50.1175 57.0419 54.665 53.7163 58.5239C53.5484 58.7194 53.4911 59.1826 53.6037 59.4142C54.2731 60.8082 55.7308 61.5286 57.2501 61.1418C58.6186 60.7933 60.0912 60.7275 60.5332 58.7767C61.6339 53.9191 64.1307 49.7839 67.6624 46.2799C68.5485 45.4001 69.4835 44.5672 70.3845 43.7257C70.2697 43.5132 70.2357 43.3708 70.1465 43.2986C65.0785 39.2399 61.8273 34.038 60.2994 27.7375C60.2357 27.4719 60.0572 27.0894 59.8489 27.0256C58.5655 26.6304 57.2671 26.1268 55.9518 26.0503C55.3504 26.0163 54.6917 26.8663 54.0691 27.3295C53.2807 27.916 53.1915 28.4366 53.9161 29.2802C56.1218 31.8493 57.6135 34.8285 58.3976 38.1285C58.7546 39.6288 58.9756 41.1587 59.2752 42.7588M32.8089 66.0951C28.8161 65.3854 25.2546 63.7385 22.0842 61.2034C21.7718 60.9527 21.1004 60.7593 20.8177 60.9229C19.1326 61.8941 18.8075 62.7717 19.2304 64.7054C19.3473 65.2409 19.3706 65.8571 19.6596 66.2821C20.0251 66.8197 20.5542 67.4572 21.1301 67.6059C26.8781 69.0977 31.6699 72.0726 35.5161 76.5903C35.8306 76.96 36.179 77.3021 36.5445 77.6931C36.8123 77.4487 36.9865 77.3276 37.114 77.1704C41.0622 72.249 46.1281 69.0934 52.2331 67.5464C52.6475 67.4423 53.1426 67.0173 53.2913 66.6242C53.6632 65.6446 53.9394 64.6076 54.0988 63.5707C54.3134 62.1873 53.0937 61.5944 52.2565 60.9187C52.0121 60.7211 51.0559 61.1588 50.5884 61.5179C47.0503 64.2549 43.0767 65.855 38.627 66.297M52.129 17.9627C50.4885 12.9733 42.386 8.45777 38.6716 9.29287C42.2033 13.6002 46.5786 16.4285 52.129 17.9627ZM34.5258 9.17812C30.669 8.17939 21.4807 14.3545 21.4531 17.8203C26.7017 16.3435 30.992 13.5152 34.5258 9.17812ZM10.8857 28.3325C5.63279 30.4277 1.35525 38.6577 2.26048 41.639C6.55927 38.1795 9.30897 33.8213 10.8857 28.3325ZM62.503 28.426C62.7495 32.6228 68.3403 40.6339 71.0623 41.367C71.1388 36.8387 66.7041 30.2067 62.503 28.426ZM70.9858 46.0483C67.8367 47.3253 62.3628 55.8039 62.69 58.781C66.5383 57.2872 71.2493 50.1197 70.9858 46.0483ZM21.5275 69.6863C22.5305 73.6217 31.4659 79.3846 34.2963 77.9821C30.8837 73.9341 26.7782 71.0781 21.5275 69.6863ZM38.7056 78.1479C43.0745 78.5813 50.7541 73.3625 51.5234 69.6714C46.3767 71.1334 42.2288 73.9022 38.7056 78.1479ZM10.4968 58.7704C10.4118 55.4236 5.3268 47.5145 2.26899 46.197C1.6655 49.6267 6.38503 57.3615 10.4968 58.7704ZM59.7087 24.9432C59.7087 23.8743 59.7151 23.0413 59.7087 22.2105C59.6988 21.0772 59.1123 20.5034 57.9492 20.4893C55.293 20.4553 55.2782 20.4574 55.8795 23.1412C55.9709 23.545 56.194 24.1378 56.4915 24.2356C57.4732 24.5607 58.5166 24.6988 59.7108 24.9453L59.7087 24.9432ZM13.4696 24.9177C14.6107 24.6797 15.7115 24.4799 16.7888 24.1973C16.9928 24.1442 17.1862 23.7808 17.2542 23.5258C17.4518 22.797 17.5687 22.0447 17.7472 21.3095C17.9044 20.6614 17.7323 20.3384 17.0119 20.3851C16.0876 20.4446 15.1568 20.4234 14.241 20.536C13.9626 20.57 13.5185 20.9206 13.5058 21.1459C13.4314 22.3465 13.4718 23.5535 13.4718 24.9156L13.4696 24.9177ZM59.6024 62.5422C58.693 62.7313 57.8855 62.9098 57.0737 63.0649C56.211 63.2307 55.0019 65.9336 55.48 66.6646C55.5417 66.7602 55.6713 66.8792 55.769 66.8771C56.9038 66.8516 58.0406 66.8282 59.1711 66.7411C59.3283 66.7283 59.5769 66.3883 59.5854 66.1928C59.6237 65.0305 59.6046 63.866 59.6046 62.5443L59.6024 62.5422ZM13.5164 62.5507C13.5164 63.8363 13.4845 64.9625 13.5419 66.0823C13.5546 66.331 13.8734 66.7623 14.0689 66.773C15.2631 66.8367 16.4637 66.8048 17.8067 66.8048C17.5708 65.719 17.3689 64.699 17.1097 63.696C17.0566 63.492 16.8079 63.2392 16.6061 63.1903C15.6052 62.948 14.5895 62.7674 13.5164 62.5507Z" fill="#010101"/>
<path d="M36.6131 20.7207C24.1544 20.7207 14.0566 31.0055 14.0566 43.6936C14.0566 56.3817 24.1566 66.6665 36.6131 66.6665C49.0696 66.6665 59.1695 56.3817 59.1695 43.6936C59.1695 31.0055 49.0696 20.7207 36.6131 20.7207ZM36.6131 64.0018C25.4337 64.0018 16.3728 54.7731 16.3728 43.3876C16.3728 32.0021 25.4358 22.7734 36.6131 22.7734C47.7903 22.7734 56.8533 32.0021 56.8533 43.3876C56.8533 54.7731 47.7903 64.0018 36.6131 64.0018Z" fill="#010101"/>
<path d="M91.8983 40.5264C90.3109 41.7121 88.5323 42.305 86.5625 42.305C84.0572 42.305 81.9386 41.4423 80.2025 39.7189C78.4685 37.9935 77.6016 35.8813 77.6016 33.3781C77.6016 30.8749 78.4685 28.7584 80.2025 27.0266C81.9365 25.2947 84.0572 24.4277 86.5625 24.4277C87.5846 24.4277 88.5706 24.5977 89.5204 24.9356V28.208C88.6003 27.6896 87.6165 27.4303 86.5625 27.4303C84.888 27.4303 83.4749 28.004 82.3275 29.1494C81.1779 30.2969 80.6041 31.7057 80.6041 33.3781C80.6041 35.0504 81.1821 36.438 82.3381 37.5834C83.4941 38.7287 84.9029 39.3024 86.5625 39.3024C87.3785 39.3024 88.1562 39.1388 88.8978 38.8137V33.6097H91.9004V40.5243L91.8983 40.5264Z" fill="#010101"/>
<path d="M104.282 42.0162H101.279V39.258C101.279 38.4123 100.997 37.7089 100.431 37.1458C99.8662 36.5827 99.1649 36.3 98.332 36.3H96.4323V42.0141H93.4297V24.4258H98.3426C100.017 24.4258 101.426 24.9995 102.567 26.147C103.708 27.2945 104.28 28.7054 104.28 30.3778C104.28 32.1543 103.612 33.6354 102.278 34.819C103.612 36.0047 104.28 37.4836 104.28 39.2601V42.0141L104.282 42.0162ZM101.281 30.3757C101.296 29.5491 101.018 28.8499 100.448 28.2826C99.8768 27.7152 99.1777 27.4305 98.3468 27.4305H96.4344V33.2996H98.3235C99.1543 33.2996 99.8492 33.0191 100.414 32.4581C100.978 31.8971 101.267 31.2023 101.281 30.3757Z" fill="#010101"/>
<path d="M117.737 36.0874C117.737 37.7448 117.159 39.1494 116.003 40.2948C114.847 41.4423 113.438 42.016 111.779 42.016C110.119 42.016 108.71 41.4423 107.554 40.2948C106.398 39.1473 105.82 37.7448 105.82 36.0874V24.4277H108.823V36.0831C108.823 36.897 109.11 37.5897 109.681 38.1592C110.255 38.7287 110.95 39.0134 111.768 39.0134C112.586 39.0134 113.285 38.7287 113.865 38.1592C114.446 37.5897 114.737 36.897 114.737 36.0831V24.4277H117.739V36.0874H117.737Z" fill="#010101"/>
<path d="M130.12 30.4113C130.105 32.0709 129.523 33.4733 128.369 34.6144C127.217 35.7555 125.808 36.3271 124.142 36.3271H122.27V42.0199H119.268V24.4316L124.18 24.4529C125.855 24.4678 127.268 25.05 128.416 26.1975C129.563 27.3471 130.13 28.7517 130.115 30.4113H130.12ZM127.119 30.3879C127.134 29.557 126.856 28.8643 126.286 28.3097C125.715 27.7529 125.016 27.4682 124.185 27.4533H122.272V33.3225H124.161C124.992 33.3225 125.687 33.042 126.252 32.4767C126.818 31.9115 127.104 31.2166 127.119 30.3858V30.3879Z" fill="#010101"/>
<path d="M149.557 33.3798C149.557 35.8682 148.69 37.9761 146.956 39.7101C145.222 41.4441 143.11 42.3089 140.619 42.3089C138.129 42.3089 135.993 41.4462 134.259 39.7228C132.525 37.9995 131.658 35.8852 131.658 33.382C131.658 30.8788 132.525 28.7623 134.259 27.0305C135.993 25.2986 138.114 24.4316 140.619 24.4316C143.124 24.4316 145.241 25.2986 146.969 27.0305C148.694 28.7623 149.559 30.8788 149.559 33.382L149.557 33.3798ZM146.554 33.3798C146.554 31.7224 145.98 30.3178 144.831 29.1639C143.681 28.0101 142.277 27.4321 140.617 27.4321C138.957 27.4321 137.529 28.0058 136.382 29.1512C135.232 30.2987 134.659 31.7075 134.659 33.3798C134.659 35.0522 135.237 36.4398 136.393 37.5851C137.549 38.7326 138.957 39.3042 140.617 39.3042C142.277 39.3042 143.681 38.7305 144.831 37.5851C145.98 36.4398 146.554 35.0373 146.554 33.3798Z" fill="#010101"/>
<path d="M91.4315 53.9984C91.4612 56.457 90.624 58.5394 88.9198 60.25C87.2156 61.9606 85.1246 62.8212 82.649 62.8361L77.1348 62.8807V45.2266H82.6044C85.0502 45.2266 87.1263 46.0787 88.8305 47.7808C90.5347 49.4829 91.4017 51.5568 91.4315 53.9984ZM88.431 54.0218C88.4162 52.394 87.8488 51.0213 86.7311 49.9057C85.6112 48.788 84.2364 48.2291 82.6065 48.2291H80.1373V59.8356H82.6278C84.2576 59.8208 85.6367 59.2555 86.7629 58.1378C87.8892 57.0201 88.4459 55.6495 88.431 54.0196V54.0218Z" fill="#010101"/>
<path d="M104.886 62.8148H101.838V55.8322H95.9694V62.8148H92.9668V51.1786C92.9668 49.5062 93.5405 48.0952 94.6901 46.9478C95.8397 45.8003 97.2507 45.2266 98.9252 45.2266C100.6 45.2266 101.994 45.8046 103.15 46.9584C104.306 48.1123 104.884 49.519 104.884 51.1764V62.8127L104.886 62.8148ZM101.838 53.2313V51.1594C101.838 50.352 101.554 49.6613 100.986 49.0876C100.417 48.5139 99.7284 48.2291 98.9145 48.2291C98.1007 48.2291 97.408 48.516 96.8321 49.0876C96.2562 49.6613 95.9694 50.352 95.9694 51.1594V53.2313H101.838Z" fill="#010101"/>
<path d="M120.717 61.3252C119.131 62.511 117.351 63.1038 115.381 63.1038C112.876 63.1038 110.757 62.2411 109.021 60.5178C107.287 58.7923 106.42 56.6801 106.42 54.1769C106.42 51.6737 107.287 49.5572 109.021 47.8254C110.755 46.0935 112.876 45.2266 115.381 45.2266C116.403 45.2266 117.389 45.3966 118.339 45.7344V49.0069C117.419 48.4884 116.435 48.2291 115.381 48.2291C113.706 48.2291 112.293 48.8029 111.146 49.9482C109.996 51.0957 109.422 52.5045 109.422 54.1769C109.422 55.8492 110 57.2368 111.156 58.3822C112.312 59.5275 113.721 60.1013 115.381 60.1013C116.197 60.1013 116.975 59.9376 117.716 59.6125V54.4085H120.719V61.3231L120.717 61.3252Z" fill="#010101"/>
<path d="M136.547 53.9984C136.576 56.457 135.739 58.5394 134.035 60.25C132.331 61.9606 130.24 62.8212 127.764 62.8361L122.25 62.8807V45.2266H127.72C130.165 45.2266 132.242 46.0787 133.946 47.7808C135.65 49.4829 136.517 51.5568 136.547 53.9984ZM133.546 54.0218C133.531 52.394 132.964 51.0213 131.846 49.9057C130.726 48.788 129.352 48.2291 127.722 48.2291H125.253V59.8356H127.743C129.373 59.8208 130.752 59.2555 131.878 58.1378C133.004 57.0201 133.561 55.6495 133.546 54.0196V54.0218Z" fill="#010101"/>
<path d="M150.001 62.8148H146.956V55.8322H141.087V62.8148H138.084V51.1786C138.084 49.5062 138.658 48.0952 139.807 46.9478C140.957 45.8003 142.368 45.2266 144.042 45.2266C145.717 45.2266 147.111 45.8046 148.267 46.9584C149.423 48.1123 150.001 49.519 150.001 51.1764V62.8127V62.8148ZM146.954 53.2313V51.1594C146.954 50.352 146.669 49.6613 146.101 49.0876C145.534 48.5139 144.843 48.2291 144.03 48.2291C143.216 48.2291 142.523 48.516 141.947 49.0876C141.371 49.6613 141.084 50.352 141.084 51.1594V53.2313H146.954Z" fill="#010101"/>
</g>
<defs>
<clipPath id="clip0_1575_2">
<rect width="150" height="88" fill="white"/>
</clipPath>
</defs>
</svg>
